<?xml version="1.0" encoding="utf-8"?>
<!-- Generator: Adobe Illustrator 23.0.0, SVG Export Plug-In . SVG Version: 6.00 Build 0)  -->
<svg version="1.1" id="Layer_1" xmlns="http://www.w3.org/2000/svg" xmlns:xlink="http://www.w3.org/1999/xlink" x="0px" y="0px"
	 viewBox="0 0 94 97" style="enable-background:new 0 0 94 97;" xml:space="preserve">
<style type="text/css">
	.st0{fill:#B53368;}
	.st1{fill:#FFFFFF;}
</style>
<circle class="st0" cx="47.9" cy="49.5" r="37.2"/>
<g>
	<path class="st1" d="M130.4,68.3c-0.7-0.1-1.3-0.2-2-0.3c-2.3-0.5-4.5-1.5-6.5-2.6c-3-1.8-5.7-3.9-8.2-6.3
		c-2.2-2.1-4.4-4.4-6.3-6.8c-2.2-2.8-4.1-5.8-5.2-9.2c-0.3-1.1-0.5-2.2-0.7-3.3c0-0.1,0-0.2-0.1-0.3c0-0.6,0-1.1,0-1.7
		c0.1-0.7,0.2-1.4,0.4-2c0.3-1.1,0.9-2,1.9-2.7c1.1-0.7,2.2-1.4,3.4-2c1.1-0.6,2.3-0.4,3,0.7c1.7,2.5,3.4,5,5,7.6
		c0.7,1.1,0.5,2.3-0.5,3c-0.9,0.7-1.7,1.4-2.6,2c-0.6,0.5-0.7,0.9-0.3,1.6c1,2,2.4,3.8,3.9,5.4c1.9,2,3.8,3.9,6.1,5.5
		c0.8,0.5,1.6,1,2.4,1.4c0.5,0.3,1,0.2,1.4-0.3c0.7-0.8,1.3-1.7,2-2.6c0.9-1.2,2.1-1.3,3.3-0.5c2.3,1.5,4.6,3.1,6.9,4.6
		c0.7,0.5,1.3,1,1.5,1.8c0,0.2,0,0.5,0,0.7c-0.1,0.3-0.2,0.6-0.3,0.8c-0.7,1.1-1.3,2.2-2,3.3c-0.6,1-1.5,1.6-2.7,1.9
		c-0.6,0.1-1.3,0.2-1.9,0.4C131.6,68.3,131,68.3,130.4,68.3z M102.7,38.2c0.1,0.8,0.1,1.5,0.2,2.1c0.1,0.7,0.3,1.4,0.5,2.1
		c0.8,2.7,2.2,5.1,3.8,7.3c2.9,4,6.3,7.5,10.1,10.7c2.6,2.2,5.4,4.1,8.5,5.4c2.3,1,4.7,1.5,7.3,1.1c1.3-0.2,2.3-0.8,3-1.9
		c0.5-0.9,1.1-1.8,1.6-2.7c0.4-0.7,0.3-1.2-0.3-1.6c-2.4-1.6-4.8-3.2-7.2-4.8c-0.7-0.5-1.1-0.4-1.6,0.3c-0.7,0.9-1.3,1.7-2,2.6
		c-0.8,1-1.9,1.2-3,0.6c-0.6-0.3-1.2-0.6-1.7-1c-2-1.2-3.7-2.9-5.4-4.5c-2.2-2.2-4.3-4.5-5.7-7.3c-0.6-1.2-0.4-2.3,0.6-3.1
		c0.9-0.7,1.7-1.3,2.6-2c0.6-0.4,0.6-0.9,0.2-1.5c-1.6-2.5-3.3-4.9-4.9-7.4c-0.4-0.6-0.9-0.7-1.5-0.3c-1,0.6-2,1.2-3,1.8
		c-0.8,0.5-1.4,1.2-1.6,2.1C102.9,36.7,102.8,37.5,102.7,38.2z"/>
	<path class="st1" d="M123.4,35.7c5.2,0.2,9.8,3.9,11,9.2c0.2,0.8,0.2,1.7,0.3,2.5c0,0.5-0.2,0.8-0.6,0.8c-0.4,0-0.6-0.3-0.7-0.8
		c-0.1-0.9-0.2-1.9-0.4-2.8c-0.8-2.9-2.6-5.1-5.3-6.5c-1.4-0.8-2.9-1.1-4.5-1.2c-0.2,0-0.3,0-0.5-0.1c-0.3-0.1-0.5-0.2-0.5-0.6
		c0-0.3,0.2-0.6,0.5-0.6C122.9,35.7,123.2,35.7,123.4,35.7z"/>
	<path class="st1" d="M123.2,39.4c4.2,0.2,7.7,3.8,7.7,8c0,0.5-0.2,0.8-0.6,0.8s-0.6-0.3-0.6-0.7c-0.2-2.8-1.5-4.9-4.1-6.2
		c-0.8-0.4-1.6-0.6-2.4-0.6c-0.2,0-0.3,0-0.5,0c-0.4-0.1-0.6-0.3-0.5-0.7c0-0.3,0.3-0.5,0.6-0.6C123,39.4,123.1,39.4,123.2,39.4z"/>
	<path class="st1" d="M123.1,43.2c2.2,0.1,4.2,2,4.2,4.3c0,0.4-0.2,0.7-0.6,0.7c-0.3,0-0.6-0.2-0.7-0.6c-0.1-1-0.4-1.8-1.2-2.4
		c-0.5-0.4-1-0.6-1.6-0.7c-0.1,0-0.3,0-0.4,0c-0.4-0.1-0.5-0.3-0.5-0.7c0-0.3,0.3-0.5,0.6-0.6C122.9,43.2,123,43.2,123.1,43.2z"/>
</g>
<path class="st1" d="M38.7,28.4c-6.7,0-12.2,5.5-12.2,12.2v17.1c0,6.7,5.5,12.2,12.2,12.2h17.1C62.5,70,68,64.5,68,57.8V40.7
	c0-6.7-5.5-12.2-12.2-12.2H38.7z M38.7,32.2h17.1c4.7,0,8.4,3.8,8.4,8.4v17.1c0,4.7-3.8,8.4-8.4,8.4H38.7c-4.7,0-8.4-3.8-8.4-8.4
	V40.7C30.2,36,34,32.2,38.7,32.2z M58.4,36.4c-1,0-1.7,0.8-1.7,1.7c0,1,0.8,1.7,1.7,1.7c1,0,1.7-0.8,1.7-1.7
	C60.1,37.1,59.4,36.4,58.4,36.4z M47.2,37.9c-6.2,0-11.3,5.1-11.3,11.3S41,60.6,47.2,60.6s11.3-5.1,11.3-11.3S53.5,37.9,47.2,37.9z
	 M47.2,41.7c4.2,0,7.6,3.4,7.6,7.6s-3.4,7.6-7.6,7.6s-7.6-3.4-7.6-7.6S43,41.7,47.2,41.7z"/>
</svg>
