<?xml version="1.0" encoding="utf-8"?>
<!-- Generator: Adobe Illustrator 25.4.1, SVG Export Plug-In . SVG Version: 6.00 Build 0)  -->
<svg version="1.1" id="OBJECT" xmlns="http://www.w3.org/2000/svg" xmlns:xlink="http://www.w3.org/1999/xlink" x="0px" y="0px"
	 viewBox="0 0 3555.6 2000" style="enable-background:new 0 0 3555.6 2000;" xml:space="preserve">
<style type="text/css">
	.st0{fill:url(#SVGID_1_);}
	.st1{fill:url(#SVGID_00000144309892114084906440000006227444726690420402_);}
	.st2{fill:url(#SVGID_00000075162043741482816570000002221690392898142647_);}
	.st3{fill:url(#SVGID_00000013171210220348152550000010450000204402424246_);}
	.st4{fill:url(#SVGID_00000107588993293944183310000017154722119351600547_);}
	.st5{fill:url(#SVGID_00000104683588367843008320000014460870608917984438_);}
	.st6{fill:url(#SVGID_00000026864117164673950130000006643871113777759628_);}
	.st7{fill:url(#SVGID_00000106829524602932345130000003886481276822769314_);}
	.st8{opacity:0.5;fill:none;stroke:#FFFFFF;stroke-width:7.2;stroke-miterlimit:10;}
	.st9{fill:#FFFFFF;}
	.st10{opacity:0.5;fill:#FFFFFF;}
</style>
<g>
	
		<radialGradient id="SVGID_1_" cx="1777.7358" cy="3307.5901" r="1922.5602" gradientTransform="matrix(1 0 0 0.7802 0 -1580.5818)" gradientUnits="userSpaceOnUse">
		<stop  offset="0" style="stop-color:#8E2DE2"/>
		<stop  offset="0.2525" style="stop-color:#8A2BE2"/>
		<stop  offset="0.4895" style="stop-color:#7F23E2"/>
		<stop  offset="0.7204" style="stop-color:#6C16E1"/>
		<stop  offset="0.9462" style="stop-color:#5105E0"/>
		<stop  offset="1" style="stop-color:#4A00E0"/>
	</radialGradient>
	<rect x="0" class="st0" width="3555.6" height="2000"/>
	<g>
		
			<linearGradient id="SVGID_00000023995805843316519720000008259995420577936061_" gradientUnits="userSpaceOnUse" x1="1995.0144" y1="-128.5209" x2="1678.3649" y2="649.2166">
			<stop  offset="0" style="stop-color:#4A00E0"/>
			<stop  offset="5.381370e-02" style="stop-color:#5105E0"/>
			<stop  offset="0.2796" style="stop-color:#6C16E1"/>
			<stop  offset="0.5105" style="stop-color:#7F23E2"/>
			<stop  offset="0.7475" style="stop-color:#8A2BE2"/>
			<stop  offset="1" style="stop-color:#8E2DE2"/>
		</linearGradient>
		<path style="fill:url(#SVGID_00000023995805843316519720000008259995420577936061_);" d="M3554.6,3v809
			c-246.6,58.6-528,72.4-777.8-57.1c-344.2-178.5-350.9-485.1-625.9-540.7c-364.7-73.7-546.3,492.1-1066.7,540.7
			C570.3,802.9,181.7,591.9-1,466.7V3H3554.6z"/>
		
			<linearGradient id="SVGID_00000043421732982062543480000002286130323100785321_" gradientUnits="userSpaceOnUse" x1="2436.1482" y1="534.4815" x2="3554.5557" y2="534.4815">
			<stop  offset="0" style="stop-color:#4A00E0"/>
			<stop  offset="5.381370e-02" style="stop-color:#5105E0"/>
			<stop  offset="0.2796" style="stop-color:#6C16E1"/>
			<stop  offset="0.5105" style="stop-color:#7F23E2"/>
			<stop  offset="0.7475" style="stop-color:#8A2BE2"/>
			<stop  offset="1" style="stop-color:#8E2DE2"/>
		</linearGradient>
		<path style="fill:url(#SVGID_00000043421732982062543480000002286130323100785321_);" d="M3554.6,3v1063
			C3325,931.3,3118.1,758.4,2947,554.5C2785.4,362,2644,134.6,2436.1,3H3554.6z"/>
		
			<linearGradient id="SVGID_00000057848536684289049240000018284348360322119051_" gradientUnits="userSpaceOnUse" x1="807.3889" y1="408.4933" x2="2748.1667" y2="408.4933">
			<stop  offset="0" style="stop-color:#4A00E0"/>
			<stop  offset="5.381370e-02" style="stop-color:#5105E0"/>
			<stop  offset="0.2796" style="stop-color:#6C16E1"/>
			<stop  offset="0.5105" style="stop-color:#7F23E2"/>
			<stop  offset="0.7475" style="stop-color:#8A2BE2"/>
			<stop  offset="1" style="stop-color:#8E2DE2"/>
		</linearGradient>
		<path style="fill:url(#SVGID_00000057848536684289049240000018284348360322119051_);" d="M2748.2,300
			c-140.3,4-278.9,33.6-405.8,93.8c-144.3,68.4-268.2,172.5-401.2,261c-133,88.5-283.4,163.8-443.2,162.3
			c-251.6-2.4-457-189.2-690.6-286c209.4-138.1,400.1-306.4,614.4-438c55.4-34,113.9-65.5,174.2-93h840.8
			C2557.3,76.3,2655.5,184.7,2748.2,300z"/>
	</g>
	<g>
		
			<linearGradient id="SVGID_00000066505989259456346310000006837686681726276262_" gradientUnits="userSpaceOnUse" x1="1997.4587" y1="68.4791" x2="1680.8092" y2="846.2166" gradientTransform="matrix(-1 0 0 -1 3556 2203)">
			<stop  offset="0" style="stop-color:#4A00E0"/>
			<stop  offset="5.381370e-02" style="stop-color:#5105E0"/>
			<stop  offset="0.2796" style="stop-color:#6C16E1"/>
			<stop  offset="0.5105" style="stop-color:#7F23E2"/>
			<stop  offset="0.7475" style="stop-color:#8A2BE2"/>
			<stop  offset="1" style="stop-color:#8E2DE2"/>
		</linearGradient>
		<path style="fill:url(#SVGID_00000066505989259456346310000006837686681726276262_);" d="M-1,2003v-809
			c246.6-58.6,528-72.4,777.8,57.1c344.2,178.5,350.9,485.1,625.9,540.7c364.7,73.7,546.3-492.1,1066.7-540.7
			c513.9-48,902.5,162.9,1085.2,288.2V2003H-1z"/>
		
			<linearGradient id="SVGID_00000011032176713921039610000004114407212368294533_" gradientUnits="userSpaceOnUse" x1="1.4444" y1="586.5086" x2="1597.8149" y2="586.5086" gradientTransform="matrix(-1 0 0 -1 3556 2203)">
			<stop  offset="0" style="stop-color:#4A00E0"/>
			<stop  offset="5.381370e-02" style="stop-color:#5105E0"/>
			<stop  offset="0.2796" style="stop-color:#6C16E1"/>
			<stop  offset="0.5105" style="stop-color:#7F23E2"/>
			<stop  offset="0.7475" style="stop-color:#8A2BE2"/>
			<stop  offset="1" style="stop-color:#8E2DE2"/>
		</linearGradient>
		<path style="fill:url(#SVGID_00000011032176713921039610000004114407212368294533_);" d="M1958.2,2003
			c60.4-27.5,118.8-59,174.2-93c271.1-166.4,504.3-391.6,785.6-540.1c193.3-102.1,424.8-162,636.5-132.2V2003H1958.2z"/>
		
			<linearGradient id="SVGID_00000127754340496472606070000014705812899492069566_" gradientUnits="userSpaceOnUse" x1="2438.5928" y1="731.4815" x2="3557" y2="731.4815" gradientTransform="matrix(-1 0 0 -1 3556 2203)">
			<stop  offset="0" style="stop-color:#4A00E0"/>
			<stop  offset="5.381370e-02" style="stop-color:#5105E0"/>
			<stop  offset="0.2796" style="stop-color:#6C16E1"/>
			<stop  offset="0.5105" style="stop-color:#7F23E2"/>
			<stop  offset="0.7475" style="stop-color:#8A2BE2"/>
			<stop  offset="1" style="stop-color:#8E2DE2"/>
		</linearGradient>
		<path style="fill:url(#SVGID_00000127754340496472606070000014705812899492069566_);" d="M-1,2003V940
			c229.5,134.6,436.5,307.6,607.6,511.4c161.6,192.5,303,419.9,510.9,551.5H-1z"/>
		
			<linearGradient id="SVGID_00000116937420595649625700000008731001935457478050_" gradientUnits="userSpaceOnUse" x1="809.1482" y1="608.4932" x2="2749.926" y2="608.4932" gradientTransform="matrix(-1 0 0 -1 3556 2203)">
			<stop  offset="0" style="stop-color:#4A00E0"/>
			<stop  offset="5.381370e-02" style="stop-color:#5105E0"/>
			<stop  offset="0.2796" style="stop-color:#6C16E1"/>
			<stop  offset="0.5105" style="stop-color:#7F23E2"/>
			<stop  offset="0.7475" style="stop-color:#8A2BE2"/>
			<stop  offset="1" style="stop-color:#8E2DE2"/>
		</linearGradient>
		<path style="fill:url(#SVGID_00000116937420595649625700000008731001935457478050_);" d="M806.1,1703
			c140.3-4,278.9-33.6,405.8-93.8c144.3-68.4,268.2-172.5,401.2-261c133-88.5,283.4-163.8,443.2-162.3
			c251.6,2.4,457,189.2,690.6,286c-209.4,138.1-400.1,306.4-614.4,438c-55.4,34-113.9,65.5-174.2,93h-840.8
			C997,1926.7,898.8,1818.3,806.1,1703z"/>
	</g>
	<g>
		<g>
			<circle class="st8" cx="855.3" cy="0.5" r="72"/>
			<circle class="st8" cx="2961.3" cy="2003.5" r="72"/>
			<polygon class="st8" points="314.3,872.7 260.5,966 368.2,966 			"/>
			<polygon class="st8" points="3329.7,966 3383.6,872.7 3275.9,872.7 			"/>
			<g id="XMLID_35_">
				<g id="XMLID_58_">
					<path id="XMLID_59_" class="st9" d="M3264.8,302.7c-3.2,0-5.8-2.6-5.8-5.8l0,0c0-3.2,2.6-5.8,5.8-5.8l0,0
						c3.2,0,5.8,2.6,5.8,5.8l0,0C3270.7,300.1,3268,302.7,3264.8,302.7z M3264.8,362.6c-3.2,0-5.8-2.6-5.8-5.8l0,0
						c0-3.2,2.6-5.8,5.8-5.8l0,0c3.2,0,5.8,2.6,5.8,5.8l0,0C3270.7,360,3268,362.6,3264.8,362.6z M3264.8,422.5
						c-3.2,0-5.8-2.6-5.8-5.8l0,0c0-3.2,2.6-5.8,5.8-5.8l0,0c3.2,0,5.8,2.6,5.8,5.8l0,0C3270.7,419.9,3268,422.5,3264.8,422.5z
						 M3264.8,482.4c-3.2,0-5.8-2.6-5.8-5.8l0,0c0-3.2,2.6-5.8,5.8-5.8l0,0c3.2,0,5.8,2.6,5.8,5.8l0,0
						C3270.7,479.8,3268,482.4,3264.8,482.4z M3264.8,542.3c-3.2,0-5.8-2.6-5.8-5.8l0,0c0-3.2,2.6-5.8,5.8-5.8l0,0
						c3.2,0,5.8,2.6,5.8,5.8l0,0C3270.7,539.7,3268,542.3,3264.8,542.3z M3264.8,602.2c-3.2,0-5.8-2.6-5.8-5.8l0,0
						c0-3.2,2.6-5.8,5.8-5.8l0,0c3.2,0,5.8,2.6,5.8,5.8l0,0C3270.7,599.6,3268,602.2,3264.8,602.2z"/>
				</g>
				<g id="XMLID_47_">
					<path id="XMLID_48_" class="st9" d="M3334,302.7c-3.2,0-5.8-2.6-5.8-5.8l0,0c0-3.2,2.6-5.8,5.8-5.8l0,0c3.2,0,5.8,2.6,5.8,5.8
						l0,0C3339.9,300.1,3337.2,302.7,3334,302.7z M3334,362.6c-3.2,0-5.8-2.6-5.8-5.8l0,0c0-3.2,2.6-5.8,5.8-5.8l0,0
						c3.2,0,5.8,2.6,5.8,5.8l0,0C3339.9,360,3337.2,362.6,3334,362.6z M3334,422.5c-3.2,0-5.8-2.6-5.8-5.8l0,0
						c0-3.2,2.6-5.8,5.8-5.8l0,0c3.2,0,5.8,2.6,5.8,5.8l0,0C3339.9,419.9,3337.2,422.5,3334,422.5z M3334,482.4
						c-3.2,0-5.8-2.6-5.8-5.8l0,0c0-3.2,2.6-5.8,5.8-5.8l0,0c3.2,0,5.8,2.6,5.8,5.8l0,0C3339.9,479.8,3337.2,482.4,3334,482.4z
						 M3334,542.3c-3.2,0-5.8-2.6-5.8-5.8l0,0c0-3.2,2.6-5.8,5.8-5.8l0,0c3.2,0,5.8,2.6,5.8,5.8l0,0
						C3339.9,539.7,3337.2,542.3,3334,542.3z M3334,602.2c-3.2,0-5.8-2.6-5.8-5.8l0,0c0-3.2,2.6-5.8,5.8-5.8l0,0
						c3.2,0,5.8,2.6,5.8,5.8l0,0C3339.9,599.6,3337.2,602.2,3334,602.2z"/>
				</g>
				<g id="XMLID_36_">
					<path id="XMLID_37_" class="st9" d="M3403.3,302.7c-3.2,0-5.8-2.6-5.8-5.8l0,0c0-3.2,2.6-5.8,5.8-5.8l0,0
						c3.2,0,5.8,2.6,5.8,5.8l0,0C3409.1,300.1,3406.5,302.7,3403.3,302.7z M3403.3,362.6c-3.2,0-5.8-2.6-5.8-5.8l0,0
						c0-3.2,2.6-5.8,5.8-5.8l0,0c3.2,0,5.8,2.6,5.8,5.8l0,0C3409.1,360,3406.5,362.6,3403.3,362.6z M3403.3,422.5
						c-3.2,0-5.8-2.6-5.8-5.8l0,0c0-3.2,2.6-5.8,5.8-5.8l0,0c3.2,0,5.8,2.6,5.8,5.8l0,0C3409.1,419.9,3406.5,422.5,3403.3,422.5z
						 M3403.3,482.4c-3.2,0-5.8-2.6-5.8-5.8l0,0c0-3.2,2.6-5.8,5.8-5.8l0,0c3.2,0,5.8,2.6,5.8,5.8l0,0
						C3409.1,479.8,3406.5,482.4,3403.3,482.4z M3403.3,542.3c-3.2,0-5.8-2.6-5.8-5.8l0,0c0-3.2,2.6-5.8,5.8-5.8l0,0
						c3.2,0,5.8,2.6,5.8,5.8l0,0C3409.1,539.7,3406.5,542.3,3403.3,542.3z M3403.3,602.2c-3.2,0-5.8-2.6-5.8-5.8l0,0
						c0-3.2,2.6-5.8,5.8-5.8l0,0c3.2,0,5.8,2.6,5.8,5.8l0,0C3409.1,599.6,3406.5,602.2,3403.3,602.2z"/>
				</g>
			</g>
			<g id="XMLID_1_">
				<g id="XMLID_24_">
					<path id="XMLID_25_" class="st9" d="M266.3,1450.4c-3.2,0-5.8-2.6-5.8-5.8l0,0c0-3.2,2.6-5.8,5.8-5.8l0,0
						c3.2,0,5.8,2.6,5.8,5.8l0,0C272.1,1447.8,269.5,1450.4,266.3,1450.4z M266.3,1510.3c-3.2,0-5.8-2.6-5.8-5.8l0,0
						c0-3.2,2.6-5.8,5.8-5.8l0,0c3.2,0,5.8,2.6,5.8,5.8l0,0C272.1,1507.7,269.5,1510.3,266.3,1510.3z M266.3,1570.2
						c-3.2,0-5.8-2.6-5.8-5.8l0,0c0-3.2,2.6-5.8,5.8-5.8l0,0c3.2,0,5.8,2.6,5.8,5.8l0,0C272.1,1567.6,269.5,1570.2,266.3,1570.2z
						 M266.3,1630.1c-3.2,0-5.8-2.6-5.8-5.8l0,0c0-3.2,2.6-5.8,5.8-5.8l0,0c3.2,0,5.8,2.6,5.8,5.8l0,0
						C272.1,1627.5,269.5,1630.1,266.3,1630.1z M266.3,1690c-3.2,0-5.8-2.6-5.8-5.8l0,0c0-3.2,2.6-5.8,5.8-5.8l0,0
						c3.2,0,5.8,2.6,5.8,5.8l0,0C272.1,1687.4,269.5,1690,266.3,1690z M266.3,1749.8c-3.2,0-5.8-2.6-5.8-5.8l0,0
						c0-3.2,2.6-5.8,5.8-5.8l0,0c3.2,0,5.8,2.6,5.8,5.8l0,0C272.1,1747.2,269.5,1749.8,266.3,1749.8z"/>
				</g>
				<g id="XMLID_13_">
					<path id="XMLID_14_" class="st9" d="M335.5,1450.4c-3.2,0-5.8-2.6-5.8-5.8l0,0c0-3.2,2.6-5.8,5.8-5.8l0,0
						c3.2,0,5.8,2.6,5.8,5.8l0,0C341.3,1447.8,338.7,1450.4,335.5,1450.4z M335.5,1510.3c-3.2,0-5.8-2.6-5.8-5.8l0,0
						c0-3.2,2.6-5.8,5.8-5.8l0,0c3.2,0,5.8,2.6,5.8,5.8l0,0C341.3,1507.7,338.7,1510.3,335.5,1510.3z M335.5,1570.2
						c-3.2,0-5.8-2.6-5.8-5.8l0,0c0-3.2,2.6-5.8,5.8-5.8l0,0c3.2,0,5.8,2.6,5.8,5.8l0,0C341.3,1567.6,338.7,1570.2,335.5,1570.2z
						 M335.5,1630.1c-3.2,0-5.8-2.6-5.8-5.8l0,0c0-3.2,2.6-5.8,5.8-5.8l0,0c3.2,0,5.8,2.6,5.8,5.8l0,0
						C341.3,1627.5,338.7,1630.1,335.5,1630.1z M335.5,1690c-3.2,0-5.8-2.6-5.8-5.8l0,0c0-3.2,2.6-5.8,5.8-5.8l0,0
						c3.2,0,5.8,2.6,5.8,5.8l0,0C341.3,1687.4,338.7,1690,335.5,1690z M335.5,1749.8c-3.2,0-5.8-2.6-5.8-5.8l0,0
						c0-3.2,2.6-5.8,5.8-5.8l0,0c3.2,0,5.8,2.6,5.8,5.8l0,0C341.3,1747.2,338.7,1749.8,335.5,1749.8z"/>
				</g>
				<g id="XMLID_2_">
					<path id="XMLID_3_" class="st9" d="M404.7,1450.4c-3.2,0-5.8-2.6-5.8-5.8l0,0c0-3.2,2.6-5.8,5.8-5.8l0,0c3.2,0,5.8,2.6,5.8,5.8
						l0,0C410.5,1447.8,407.9,1450.4,404.7,1450.4z M404.7,1510.3c-3.2,0-5.8-2.6-5.8-5.8l0,0c0-3.2,2.6-5.8,5.8-5.8l0,0
						c3.2,0,5.8,2.6,5.8,5.8l0,0C410.5,1507.7,407.9,1510.3,404.7,1510.3z M404.7,1570.2c-3.2,0-5.8-2.6-5.8-5.8l0,0
						c0-3.2,2.6-5.8,5.8-5.8l0,0c3.2,0,5.8,2.6,5.8,5.8l0,0C410.5,1567.6,407.9,1570.2,404.7,1570.2z M404.7,1630.1
						c-3.2,0-5.8-2.6-5.8-5.8l0,0c0-3.2,2.6-5.8,5.8-5.8l0,0c3.2,0,5.8,2.6,5.8,5.8l0,0C410.5,1627.5,407.9,1630.1,404.7,1630.1z
						 M404.7,1690c-3.2,0-5.8-2.6-5.8-5.8l0,0c0-3.2,2.6-5.8,5.8-5.8l0,0c3.2,0,5.8,2.6,5.8,5.8l0,0
						C410.5,1687.4,407.9,1690,404.7,1690z M404.7,1749.8c-3.2,0-5.8-2.6-5.8-5.8l0,0c0-3.2,2.6-5.8,5.8-5.8l0,0
						c3.2,0,5.8,2.6,5.8,5.8l0,0C410.5,1747.2,407.9,1749.8,404.7,1749.8z"/>
				</g>
			</g>
			<path class="st10" d="M1706.8,1729.4c4.9,10,10,20.4,20.7,20.4c10.7,0,15.8-10.4,20.7-20.4c4.6-9.3,8.9-18.1,17.1-18.1
				c8.2,0,12.5,8.8,17.1,18.1c4.9,10,10,20.4,20.7,20.4c10.7,0,15.8-10.4,20.7-20.4c4.6-9.3,8.9-18.1,17.1-18.1
				c8.2,0,12.5,8.8,17.1,18.1c4.9,10,10,20.4,20.7,20.4c10.7,0,15.8-10.4,20.7-20.4c4.6-9.3,8.9-18.1,17.1-18.1
				c8.2,0,12.5,8.8,17.1,18.1c4.9,10,10,20.4,20.7,20.4h1.6v-4.1h-1.6c-8.2,0-12.5-8.8-17.1-18.1c-4.9-10-10-20.4-20.7-20.4
				c-10.7,0-15.8,10.4-20.7,20.4c-4.6,9.3-8.9,18.1-17.1,18.1c-8.2,0-12.5-8.8-17.1-18.1c-4.9-10-10-20.4-20.7-20.4
				c-10.7,0-15.8,10.4-20.7,20.4c-4.6,9.3-8.9,18.1-17.1,18.1c-8.2,0-12.5-8.8-17.1-18.1c-4.9-10-10-20.4-20.7-20.4
				c-10.7,0-15.8,10.4-20.7,20.4c-4.6,9.3-8.9,18.1-17.1,18.1c-8.2,0-12.5-8.8-17.1-18.1c-4.9-10-10-20.4-20.7-20.4h-1.6v4.1h1.6
				C1697.9,1711.4,1702.2,1720.1,1706.8,1729.4z"/>
		</g>
	</g>
</g>
</svg>
